<svg version="1.2" xmlns="http://www.w3.org/2000/svg" viewBox="0 0 785 589" width="785" height="589">
	<title>contact-img-svg</title>
	<style>
		.s0 { fill: #ffffff } 
		.s1 { fill: #a0c6f4 } 
		.s2 { fill: none;stroke: #ffffff;stroke-linecap: round;stroke-linejoin: round } 
		.s3 { fill: #f9865f } 
		.s4 { fill: #000000 } 
		.s5 { fill: #2a1e33 } 
		.s6 { fill: #3b3b5f } 
		.s7 { fill: #8c3c6c } 
		.s8 { fill: #ff8a66 } 
		.s9 { fill: #471c36 } 
		.s10 { fill: none;stroke: #2a1e33;stroke-linecap: round;stroke-linejoin: round } 
		.s11 { fill: #ff6d66 } 
		.s12 { fill: #fad8b0 } 
		.s13 { fill: #121212 } 
		.s14 { fill: #fff7dc } 
		.s15 { fill: #ffe1c0 } 
		.s16 { fill: #ffffff;stroke: #ffffff;stroke-linecap: round;stroke-linejoin: round } 
		.s17 { fill: #91ba83 } 
		.s18 { fill: #7595ec } 
		.s19 { fill: none;stroke: #ffffff;stroke-linecap: round;stroke-linejoin: round;stroke-width: .7 } 
		.s20 { fill: none;stroke: #ff6d66;stroke-linecap: round;stroke-linejoin: round } 
		.s21 { fill: none;stroke: #fad8b0;stroke-miterlimit:10 } 
		.s22 { fill: none;stroke: #a0c6f4;stroke-linecap: round;stroke-linejoin: round } 
	</style>
	<path id="Layer" class="s0" d="m542.8 172.1c-54.1-50.8-117.6-64-134.4-66.7 11.3-30.5 28.8-75.9 33.1-82.6q4.2-0.5 8.5-0.5c12.3 0 38.7 2.6 76.9 19.8 55.2 24.8 69.8 52.8 72.8 59.6z"/>
	<path id="Layer" fill-rule="evenodd" class="s1" d="m449.9 19c13.5 0 40.1 2.8 78.2 20 65.2 29.4 75.3 63.3 75.3 63.3l-60.2 74.7c-63.1-61-139.3-68.8-139.3-68.8 0 0 32.1-87.2 36-88.5q5-0.8 10.1-0.7zm0.1 6.7q0 0 0 0 0.1 0 0.1 0zm0 0c-2.8 0-4.9 0.2-6.4 0.3-4.6 8.6-18.1 43.2-30.6 76.8 13.3 2.5 26.3 6.1 39.1 10.6 33.3 11.9 64.1 30.1 90.4 53.9l53.2-66c-4.3-8.5-20.4-33.6-70.2-56.1-37.6-16.9-63.5-19.5-75.5-19.5z"/>
	<path id="Layer" fill-rule="evenodd" class="s2" d="m415 115c0 0 74.9 7.5 121.1 50"/>
	<path id="Layer" class="s1" d="m479.7 111.3l27.9-54.4 28.8 56.7z"/>
	<path id="Layer" fill-rule="evenodd" class="s2" d="m485.1 110.5l28-54.4 28.7 56.8z"/>
	<path id="Layer" fill-rule="evenodd" class="s2" d="m458.9 15.7c0 0 84 7.6 136.2 69.7"/>
	<path id="Layer" class="s0" d="m501.8 256.9c-4.6-3.4-7.6-5.7-7.6-5.7 1.3-1.7 21.5-23.3 33.2-40.7 0 0-23.7 47.7-25.6 46.4z"/>
	<path id="Layer" fill-rule="evenodd" class="s2" d="m215.4 99.7c2.3 3.7 3.3 2.2 9.8 1.6 6.5-0.6 15.7 4.3 19 12.3 3.2 8 2.2 9.3 0.5 10.3-1.8 1-14.3 2.5-14.8 5"/>
	<path id="Layer" class="s3" d="m383.9 507.4l-5.8-9.9-20.7 34.5 5.4 4.2z"/>
	<path id="Layer" class="s3" d="m246.7 421.9c0 0-10.8-17.5-6.2-26l34.2 3.7z"/>
	<path id="Layer" class="s4" d="m246.7 421.9l2 4.7-6.3 24.7c-0.4 1.5-0.4 3.1 0.1 4.6 0.5 1.5 1.4 2.8 2.6 3.8l31.2-46.2c1.4-2.2 2.1-4.7 1.8-7.3-0.3-2.5-1.5-4.9-3.4-6.6l-7-6.5z"/>
	<path id="Layer" class="s5" d="m229.9 129c9.8-0.3 22.2-0.9 19.7-8.4-2.4-7.5-11.7-26.1-32.8-20.5 0 0-7.5 6.2 1.8 17.4 9.3 11.2 11.3 11.5 11.3 11.5z"/>
	<path id="Layer" class="s6" d="m279.5 399.9c0 0-16.7-49.4-2.6-71.1 11.7-17.9 49.8 11.2 55 15.1l27.3-49.3c0 0-6.3-8.8-21.8-17.5-15.4-8.7-79.3-34.6-109.3 12.8-11.1 17.6-11.2 92.8 10.1 121.6z"/>
	<path id="Layer" fill-rule="evenodd" class="s2" d="m279.5 399.9c0 0-16.7-49.4-2.6-71.1 11.7-17.9 49.8 11.2 55 15.1"/>
	<path id="Layer" class="s6" d="m359.2 294.6c-12.4 13.1-49.2 76.8-57.5 107.2-11 40.7-6.9 74.5 53.9 140.7l29.4-42.9c0 0-20.7-31.4-16.7-61.1 5.6-42.8 36-84.4 51.4-110.7z"/>
	<path id="Layer" class="s7" d="m363.8 300.1l48.9 38.5 14.6-22.3z"/>
	<path id="Layer" class="s8" d="m644.6 259.7q11.4 2.5 17.4 8.8c4 4.1 2.2 6.3 0.8 7.6-1.5 1.3-7.1-0.2-12-4.5-4.9-4.4-6.2-11.9-6.2-11.9z"/>
	<path id="Layer" class="s3" d="m494.2 251.2c1.3-1.7 21.5-23.3 33.2-40.7 0 0 35.3 39.7 39.2 41 1.4 0.5 10 0.4 20.9 0.3 18.1-0.2 42.3-0.4 47.7 2.3 8.5 4.2 13.6 6.4 15.8 12.4 2.1 5.9 2.9 9.8-2.2 10.2-5.9 0.4-9.8-7.3-9.8-7.3q-8.4 4.6-17.5 7.7c0 0-45.3 17.6-75.6 9.1-8.2-2.3-51.7-35-51.7-35z"/>
	<path id="Layer" class="s3" d="m219.4 92.6c-3.8 1.5-6.2 3.3-4 7.1 2.3 3.7 3.3 2.2 9.8 1.6 6.5-0.6 15.7 4.3 19 12.3 3.2 8 2.2 9.3 0.5 10.3-1.8 1-14.3 2.5-14.8 5-0.5 2.5 5.1 9.9 16.6 9.4l2.8-0.5c0 0 24.2 23.7 27.7 27.2 3.5 3.5 29.2 20.9 43.4 24.5 10.8 2.7 32.6-0.8 45.7-3.4 6.4-1.2 10.7-2.2 10.7-2.2 0 0-9.8-17.8-11.8-45.1 0 0-23.5 3.8-39.2 7.2 0 0-36.5-20.4-54.3-29.4 0 0-15.5-19-22.7-21.5-7.3-2.5-24.1-4.5-29.4-2.5z"/>
	<path id="Layer" class="s0" d="m366.1 186.2c6.3-1.2 10.7-2.3 10.7-2.3 0 0-11.9-15-13.9-42.3 0 0-5.4 5.8-3.7 21.3 2.1 19.5 6.9 23.3 6.9 23.3z"/>
	<path id="Layer" class="s9" d="m362.4 138.5c0 0 0.3 33.4 9.2 47.3l3.2-1.3c0 0-42 49.3-55.6 81.5-2.3 5.3 87.3 62.6 100.5 61.8 0 0 43.7-66.7 58.5-86.5l16.1 12.5c0 0 31.4-31.9 33.1-43.3 0 0-30.4-37-55.1-47.8-24.8-10.9-47.2-29.5-73.9-28.9-23.1 0.4-36 4.7-36 4.7z"/>
	<path id="Layer" class="s0" d="m494.2 253.8l-16-12.5 2.5-7z"/>
	<path id="Layer" class="s3" d="m518.6 121.8c-2.8 8.8-10.9 34.1-19.9 37.2-9.1 3.1-18.4-0.8-18.4-0.8l-9.7 4.9c-1 3.3-8.6 6.1-18.4 6.4-7.3 0.3-11.8-9-9.6-15.8 1-3.1 4.7-18.4 4.7-18.4 0 0 7.8-28.8 15-34.7 7.3-5.9 13.9-11.8 33.1-4.1 29.2 11.9 23.2 25.3 23.2 25.3z"/>
	<path id="Layer" class="s5" d="m460.5 123.1c-1.3 5.3-6.9 16.1-10.5 14.2-3.7-2-5-6.9-2.4-16.4 2.6-9.4 4.8-30.9 12-34.8 7.3-3.8 10.6 0.7 10.6 0.7 0 0-3.3-15.7 6.2-17.9 0 0 3.2-1.5 1.9 9.3 1.3-3 3.5-5.4 6.3-7 2.8-1.5 6-2.1 9.2-1.6 11.7 1.3 15.8 17.8 15.8 17.8 0.4-1.4 1.2-2.6 2.3-3.4 1.1-0.8 2.5-1.2 3.9-1.1 5.4 0 13.6 7.9 11.6 16.7 0 0 13.8-4.3 21 6.7 7.3 11 6.5 23-11.1 27.8-18.4 4.9-18.2-16.6-21-19.4-2.8-2.8-5.8-6-16.1-2.1-10.3 3.8-21-7.6-21-7.6 0 0-1.7 13.8-3.5 15.1-1.7 1.3-5.1 3-4.3-3.4 0.9-6.5 2-5.8 1.3-7.5-0.6-1.7-3.5-7.2-9.6-2.4-6.9 5.3-2.6 16.3-2.6 16.3z"/>
	<path id="Layer" fill-rule="evenodd" class="s10" d="m463.4 125.5c-4.1-3.4-6.9-9.6-3.3-15.6 3.6-6.1 9.5-6.9 11.3-4.6 1.8 2.3 2.5 6.2 0.8 10.7"/>
	<path id="Layer" class="s4" d="m362.9 536.2l2 4.7-6.3 24.7c-0.4 1.5-0.4 3.1 0.1 4.6 0.5 1.5 1.4 2.8 2.5 3.9l31.3-46.3c1.4-2.1 2-4.7 1.7-7.3-0.3-2.5-1.4-4.9-3.3-6.6l-7-6.5z"/>
	<path id="Layer" fill-rule="evenodd" class="s10" d="m470.2 86.8c0 0-2.4-7.8-9.6-9.9"/>
	<path id="Layer" fill-rule="evenodd" class="s2" d="m318.1 263.7l86.6-121.2"/>
	<path id="Layer" fill-rule="evenodd" class="s2" d="m440.4 151c-3.2 4.1-4.6 21.6 9.8 22.7 8.2 0.8 16.4-1 23.5-5.2"/>
	<path id="Layer" fill-rule="evenodd" class="s2" d="m248.7 95.1c0 0 9.9 13.2 11.4 17.8"/>
	<path id="Layer" fill-rule="evenodd" class="s2" d="m619.3 271c0 0 6.6 5.5 19.7-1.6 4.8-2.6 1.4-8.6-4.6-7.1-6.1 1.5-13.3-0.8-13.3-0.8"/>
	<path id="Layer" fill-rule="evenodd" class="s2" d="m646.9 260.5c0 0 6.3 7.4 6.1 11.8"/>
	<path id="Layer" fill-rule="evenodd" class="s2" d="m553.5 259.7c0 0 5.7-7.7 13.1-8.2"/>
	<path id="Layer" fill-rule="evenodd" class="s2" d="m311.7 158.5c0 0 3.3-10.5 14-12.4"/>
	<path id="Layer" fill-rule="evenodd" class="s2" d="m340.7 317l-12.8 24.5c0 0-42.2 71.5-27.8 117.7"/>
	<path id="Layer" fill-rule="evenodd" class="s2" d="m378.1 399.1l41.5-71.3c0 0 54.5-79.1 60-90.1l19.2-35.6"/>
	<path id="Layer" fill-rule="evenodd" class="s2" d="m323.9 271.3c0 0 73.9 53.9 95.8 56.5"/>
	<path id="Layer" fill-rule="evenodd" class="s2" d="m362.4 138.5c0 0 0 33.9 9 47.8"/>
	<path id="Layer" fill-rule="evenodd" class="s2" d="m525 205.2c-2.3 13.9-33.1 43.2-33.1 43.2"/>
	<path id="Layer" class="s0" d="m295 378.9c2.4 0 4.4-2 4.4-4.4 0-2.4-2-4.4-4.4-4.4-2.4 0-4.4 2-4.4 4.4 0 2.4 2 4.4 4.4 4.4z"/>
	<path id="Layer" fill-rule="evenodd" class="s2" d="m706.4 468.9l-2.4-16.8 14.3 9.5-7.5 1.6z"/>
	<path id="Layer" fill-rule="evenodd" class="s2" d="m232 182.1c-27.1-24-71.9 35.8 91.9 225.9 94.6 109.7 168.9 119.5 178.9 81.4 18.1-68.5-47.1-85.8-22.9-59 35.3 39 135.7 47.2 210.4 10.9 73.8-35.9 28.5-91.7 23.9-94.9"/>
	<path id="Layer" class="s0" d="m691.6 445.3c2.4 0 4.4-2 4.4-4.4 0-2.4-2-4.4-4.4-4.4-2.4 0-4.4 2-4.4 4.4 0 2.4 2 4.4 4.4 4.4z"/>
	<path id="Layer" fill-rule="evenodd" class="s2" d="m627.8 476.8l129.9-73.4"/>
	<path id="Layer" class="s0" d="m234.7 190c2.4 0 4.3-1.9 4.3-4.4 0-2.4-1.9-4.3-4.3-4.3-2.5 0-4.4 1.9-4.4 4.3 0 2.5 1.9 4.4 4.4 4.4z"/>
	<path id="Layer" class="s11" d="m346.5 104.4c5.2 0 9.4-4.2 9.4-9.4 0-5.2-4.2-9.5-9.4-9.5-5.2 0-9.4 4.3-9.4 9.5 0 5.2 4.2 9.4 9.4 9.4z"/>
	<path id="Layer" class="s1" d="m175.8 23.1c-0.8 0-1.6 0.2-2.3 0.7-0.7 0.5-1.2 1.1-1.6 1.9-0.3 0.7-0.4 1.6-0.2 2.4 0.2 0.8 0.6 1.5 1.1 2.1 0.6 0.6 1.4 1 2.2 1.1 0.8 0.2 1.6 0.1 2.4-0.2 0.7-0.3 1.4-0.8 1.8-1.5 0.5-0.7 0.7-1.5 0.7-2.3 0-1.1-0.4-2.2-1.2-3-0.8-0.8-1.8-1.2-2.9-1.2z"/>
	<path id="Layer" class="s12" d="m729.9 537.5c2.3 0 4.1-1.8 4.1-4.1 0-2.3-1.8-4.1-4.1-4.1-2.3 0-4.2 1.8-4.2 4.1 0 2.3 1.9 4.1 4.2 4.1z"/>
	<path id="Layer" class="s5" d="m656 346.3l-44.5-20.9c-0.8-0.3-1.4-0.9-1.9-1.7-0.5-0.7-0.7-1.6-0.7-2.5 0-0.8 0.3-1.7 0.8-2.4 0.4-0.8 1.1-1.4 1.9-1.7l82.7-36.5q0.9-0.4 1.8-0.4 1 0 1.9 0.4l56.8 24.5z"/>
	<path id="Layer" class="s13" d="m653.3 277.7c0.1 18.4 2.7 68.6 2.7 68.6l98.9-41.3-2.2-69.9c-0.1-1-0.3-2-0.8-2.9-0.5-0.8-1.2-1.5-2.1-2.1-0.8-0.5-1.8-0.8-2.8-0.9-0.9 0-1.9 0.2-2.8 0.6l-85.1 38.8c-1.8 0.8-3.2 2.1-4.3 3.7-1 1.6-1.5 3.5-1.5 5.4z"/>
	<path id="Layer" fill-rule="evenodd" class="s2" d="m656 346.3l98.8-41.3-2.2-69.9c0 0-0.6-7.7-8.5-5.3"/>
	<path id="Layer" fill-rule="evenodd" class="s2" d="m703.8 296.1l6.7-15.8"/>
	<path id="Layer" fill-rule="evenodd" class="s2" d="m710.5 296.1l6.7-15.8"/>
	<path id="Layer" class="s11" d="m193.6 468.4c2.3 0 4.1-1.9 4.1-4.1 0-2.3-1.8-4.2-4.1-4.2-2.3 0-4.1 1.9-4.1 4.2 0 2.2 1.8 4.1 4.1 4.1z"/>
	<path id="Layer" class="s11" d="m542.3 490.6c3.1 0 5.7-2.6 5.7-5.8 0-3.2-2.6-5.8-5.7-5.8-3.2 0-5.8 2.6-5.8 5.8 0 3.2 2.6 5.8 5.8 5.8z"/>
	<path id="Layer" class="s14" d="m236.5 525.7c16.3 7.5 34.2 11.4 52.2 11.2q0.5 0 1 0.2 0.4 0.3 0.7 0.6 0.4 0.4 0.5 0.9 0.2 0.5 0.1 1l-3.6 28.7c-0.1 0.5-0.3 0.9-0.6 1.3-0.4 0.3-0.8 0.6-1.3 0.7-7.4 1.3-36.8 5.4-58.9-13.4q-0.5-0.5-0.7-1.1-0.2-0.7-0.1-1.3l7.3-27.4q0.2-0.5 0.5-0.9 0.4-0.4 0.9-0.6 0.5-0.2 1-0.2 0.5 0.1 1 0.3z"/>
	<path id="Layer" fill-rule="evenodd" class="s2" d="m239.1 534.1c0 0 12.7 17.9 17.2 20.5 4.6 2.6 29.1-12.1 29.1-12.1"/>
	<path id="Layer" fill-rule="evenodd" class="s2" d="m268.4 552.1l13.4 13.8"/>
	<path id="Layer" fill-rule="evenodd" class="s2" d="m249.8 549.5l-15.7 4.2"/>
	<path id="Layer" class="s15" d="m646.5 186.4h-15v15h15z"/>
	<path id="Layer" class="s1" d="m633.6 388.5l4.4 7.7 4.5 7.8h-8.9-8.9l4.4-7.8z"/>
	<path id="Layer" fill-rule="evenodd" class="s2" d="m274 46.8l1.2-35.1c-0.2-3.3 1.2-4.3 3.2-4.7 9.5-2.1 38.4-8.6 69.8 0.7 4 1.2 3.9 3.4 3.8 5.3l-1.1 33.4q-0.1 0.9-0.6 1.8-0.5 0.8-1.3 1.3-0.8 0.6-1.7 0.7-1 0.2-1.9 0c-11.4-1.4-22.8-1.9-34.3-1.7-11 0-22 0.9-32.9 2.7-3.1 0.6-4.3-1.7-4.2-4.4z"/>
	<path id="Layer" fill-rule="evenodd" class="s2" d="m284.6 41.7l18.3-21.4 20.2 20c-7-2.4-38.5 1.4-38.5 1.4z"/>
	<path id="Layer" fill-rule="evenodd" class="s2" d="m314 30.1l14.8-11.8 12.5 8.9 0.5 13.9-18.7-0.9"/>
	<path id="Layer" fill-rule="evenodd" class="s2" d="m292.5 18.6c0.1-1.7-1.3-3.2-3.3-3.4-2-0.2-3.7 1-3.9 2.7-0.2 1.7 1.3 3.2 3.3 3.4 2 0.2 3.7-1 3.9-2.7z"/>
	<path id="Layer" fill-rule="evenodd" class="s2" d="m627.5 501.8l12.2 22.7c1.3 2 0.9 3.1-0.3 4.2-5.2 4.8-21.2 19.7-44.6 25.5-3.1 0.7-3.8-0.7-4.4-2l-11.7-21.6q-0.3-0.6-0.3-1.3 0-0.7 0.3-1.4 0.3-0.6 0.8-1.1 0.6-0.4 1.2-0.6c7.8-3.4 15.3-7.3 22.4-11.8 7.1-4 13.8-8.6 20.1-13.8 1.7-1.7 3.3-0.6 4.3 1.2z"/>
	<path id="Layer" fill-rule="evenodd" class="s2" d="m622.6 509l-3.6 20.4-20.3-5.2c5.3-1.1 23.9-15.2 23.9-15.2z"/>
	<path id="Layer" fill-rule="evenodd" class="s2" d="m608.2 527.2l-5 13.1-11.2-1-5.5-8.7 12.2-6.4"/>
	<path id="Layer" fill-rule="evenodd" class="s2" d="m629.4 527.6c1.4-0.6 2-2 1.5-3.1-0.5-1.2-2-1.6-3.3-1-1.3 0.6-2 2-1.5 3.2 0.5 1.1 2 1.5 3.3 0.9z"/>
	<path id="Layer" class="s16" d="m567.8 114.6l49.8 38.2q0.4 0.3 0.9 0.4 0.4 0.2 0.9 0.1 0.5-0.1 0.9-0.3 0.5-0.3 0.8-0.7l7.5-10.2c0.4-0.5 0.5-1.1 0.4-1.8-0.1-0.6-0.4-1.1-0.9-1.5l-49.1-39.4q-0.4-0.3-0.9-0.5-0.4-0.1-0.9 0-0.5 0-1 0.3-0.4 0.3-0.7 0.7l-8.2 11.4c-0.4 0.5-0.6 1.1-0.5 1.7 0.1 0.7 0.5 1.2 1 1.6z"/>
	<path id="Layer" class="s11" d="m571.5 112.9l12 8.5 7.2-8.5-12.1-10.1z"/>
	<path id="Layer" class="s12" d="m588.1 124.7l12.1 9.6 6.5-8-12.2-9.8z"/>
	<path id="Layer" class="s1" d="m604.2 138l12.1 8.5 5.8-7.4-11.5-9.6z"/>
	<path id="Layer" class="s16" d="m667.2 61.2l11.3 95.5q0.1 0.8 0.5 1.4 0.3 0.7 0.9 1.2 0.6 0.4 1.4 0.6 0.7 0.2 1.5 0.1l19.2-2.6c1-0.1 1.8-0.6 2.4-1.4 0.6-0.8 0.9-1.7 0.8-2.7l-9.3-96q-0.1-0.8-0.4-1.5-0.4-0.7-1-1.1-0.6-0.5-1.4-0.7-0.7-0.2-1.5-0.1l-21.2 3.1c-1 0.2-1.9 0.7-2.5 1.5-0.6 0.8-0.9 1.8-0.7 2.7z"/>
	<path id="Layer" class="s11" d="m673 63.5l3.6 22.3 16.9-1.3-1.8-24z"/>
	<path id="Layer" class="s17" d="m677.8 94.3l2.4 23.6 15.7-1.4-2.2-23.9z"/>
	<path id="Layer" class="s12" d="m680.5 126.3l3.6 22.4 14.2-1.6-1.7-22.8z"/>
	<path id="Layer" class="s16" d="m642.4 81.6l31.4 92.5q0.2 0.6 0.6 1.1 0.4 0.4 1 0.7 0.5 0.2 1.1 0.3 0.6 0 1.2-0.2l19.7-7.1c0.7-0.3 1.3-0.8 1.6-1.5 0.4-0.7 0.4-1.5 0.2-2.2l-29.5-93.5q-0.2-0.6-0.6-1.1-0.4-0.4-1-0.7-0.5-0.3-1.1-0.3-0.6 0-1.2 0.2l-21.6 8c-0.8 0.3-1.4 0.8-1.7 1.5-0.3 0.7-0.4 1.5-0.1 2.3z"/>
	<path id="Layer" class="s1" d="m648.8 83.3l8.1 21.1 16.3-4.8-6.8-23.2z"/>
	<path id="Layer" class="s3" d="m659.9 112.5l7.2 22.5 15.1-4.6-7.1-23z"/>
	<path id="Layer" class="s12" d="m669.2 143.2l8.1 21.1 13.6-4.5-6.4-22z"/>
	<path id="Layer" class="s18" d="m405.5 198.5h-158.8c-5 0-9.1 4.1-9.1 9.2v21.5c0 5 4.1 9.2 9.1 9.2h158.8c5 0 9.1-4.2 9.1-9.2v-21.5c0-5.1-4.1-9.2-9.1-9.2z"/>
	<path id="Layer" class="s0" d="m346 210.2h-86.6c-1.6 0-3 1.4-3 3 0 1.7 1.4 3.1 3 3.1h86.6c1.7 0 3-1.4 3-3.1 0-1.6-1.3-3-3-3z"/>
	<path id="Layer" fill-rule="evenodd" class="s2" d="m257.3 224.1h147.1"/>
	<path id="Layer" class="s17" d="m182 123.5l2.5 2.7c0.5 0.6 0.8 1.3 0.8 2-0.1 0.8-0.4 1.5-1 2l-4.1 3.8c-0.5 0.5-1.3 0.7-2 0.7-0.8 0-1.5-0.4-2-0.9l-2.5-2.8z"/>
	<path id="Layer" fill-rule="evenodd" class="s2" d="m159.5 118.1l11.8 13c0.6 0.6 1.6 0.7 2.3 0.1l8.1-7.5c0.7-0.6 0.8-1.6 0.2-2.3l-11.9-13c-0.6-0.6-1.6-0.7-2.3-0.1l-8.1 7.5c-0.7 0.6-0.7 1.6-0.1 2.3z"/>
	<path id="Layer" class="s11" d="m147.1 176.9h-14.8v13.6h14.8z"/>
	<path id="Layer" fill-rule="evenodd" class="s2" d="m132.3 168.2v8.7h-8.9"/>
	<path id="Layer" class="s12" d="m635.8 23.8h-14.9v13.5h14.9z"/>
	<path id="Layer" fill-rule="evenodd" class="s2" d="m620.9 15v8.8h-8.8"/>
	<path id="Layer" fill-rule="evenodd" class="s2" d="m219.5 107.6c-153.8-63.8-272.1 59.1 17.7 247.4 22.9 14.8 57.9 20.1 57.9 20.1"/>
	<path id="Layer" class="s0" d="m78.1 116.3c2.4 0 4.4-2 4.4-4.4 0-2.4-2-4.4-4.4-4.4-2.4 0-4.4 2-4.4 4.4 0 2.4 2 4.4 4.4 4.4z"/>
	<path id="Layer" fill-rule="evenodd" class="s2" d="m50.2 87.8l4.8-4.6 11 6.3 5.6 17.1-17-7.1z"/>
	<path id="Layer" fill-rule="evenodd" class="s2" d="m55 83.2l-4.8 4.6-2.7-3.3 4.6-4.4z"/>
	<path id="Layer" fill-rule="evenodd" class="s2" d="m71.6 106.6l-11-12.1"/>
	<path id="Layer" class="s16" d="m98.2 414.1l11.9 61.7q0.1 0.5 0.4 0.9 0.3 0.4 0.7 0.6 0.4 0.3 0.9 0.4 0.5 0.1 1 0l12.4-2.6c0.6-0.2 1.1-0.5 1.5-1.1 0.3-0.5 0.5-1.1 0.4-1.8l-10.6-62q-0.1-0.5-0.4-1-0.3-0.4-0.7-0.7-0.4-0.2-0.9-0.3-0.5-0.1-1 0l-13.7 3q-0.5 0.1-0.9 0.4-0.4 0.3-0.6 0.7-0.3 0.4-0.4 0.8-0.1 0.5 0 1z"/>
	<path id="Layer" class="s11" d="m102.1 415.2l3.4 14.4 11-1.6-2.3-15.6z"/>
	<path id="Layer" class="s12" d="m106.7 435.1l2.7 15.3 10.2-1.7-2.6-15.5z"/>
	<path id="Layer" class="s1" d="m110 455.8l3.4 14.4 9.2-1.7-2.2-14.8z"/>
	<path id="Layer" fill-rule="evenodd" class="s2" d="m440.5 568.7l50.5-13.6 1.9 5.5-51.1 13.3z"/>
	<path id="Layer" fill-rule="evenodd" class="s2" d="m433.4 561.6l1.5 4.6"/>
	<path id="Layer" fill-rule="evenodd" class="s2" d="m432 564.6l4.3-1.5"/>
	<path id="Layer" fill-rule="evenodd" class="s2" d="m431 579.1l2.7 8.7"/>
	<path id="Layer" fill-rule="evenodd" class="s2" d="m428.7 584.6l7.6-2.4"/>
	<path id="Layer" fill-rule="evenodd" class="s2" d="m419.4 564.8l3.6 11.5"/>
	<path id="Layer" fill-rule="evenodd" class="s2" d="m415.9 572l10.6-3.4"/>
	<path id="Layer" fill-rule="evenodd" class="s19" d="m72.2 19.1l-32-14.4 1.3-3.7 32.2 14.8z"/>
	<path id="Layer" fill-rule="evenodd" class="s19" d="m72.8 25.8l1.2-3"/>
	<path id="Layer" fill-rule="evenodd" class="s19" d="m74.8 24.8l-2.8-1"/>
	<path id="Layer" fill-rule="evenodd" class="s19" d="m81.5 17.7l2.3-5.7"/>
	<path id="Layer" fill-rule="evenodd" class="s19" d="m85.1 15.8l-5-1.9"/>
	<path id="Layer" fill-rule="evenodd" class="s19" d="m81.5 30l3-7.4"/>
	<path id="Layer" fill-rule="evenodd" class="s19" d="m86.3 27.8l-6.9-2.7"/>
	<path id="Layer" fill-rule="evenodd" class="s20" d="m34.7 274.1h12.5"/>
	<path id="Layer" fill-rule="evenodd" class="s20" d="m729.9 123.8h12.4"/>
	<path id="Layer" fill-rule="evenodd" class="s21" d="m395.2 38.1h12.5"/>
	<path id="Layer" fill-rule="evenodd" class="s21" d="m753.7 188.6l12.3 2.2"/>
	<path id="Layer" fill-rule="evenodd" class="s22" d="m263.5 500.5h12.5"/>
	<path id="Layer" class="s17" d="m780.6 348.8c2.3 0 4.1-1.8 4.1-4.1 0-2.3-1.8-4.1-4.1-4.1-2.3 0-4.1 1.8-4.1 4.1 0 2.3 1.8 4.1 4.1 4.1z"/>
	<path id="Layer" class="s17" d="m4.1 150.2c2.3 0 4.2-1.9 4.2-4.2 0-2.2-1.9-4.1-4.2-4.1-2.3 0-4.1 1.9-4.1 4.1 0 2.3 1.8 4.2 4.1 4.2z"/>
</svg>